Coordinates
version=1
nRows=16
nColumns=36
inDegrees=yes

Units are S.I. units (second, meters, Newtons, ...)
If the header above contains a line with 'inDegrees', this indicates whether rotational values are in degrees (yes) or radians (no).

endheader
time	pelvis_tilt	pelvis_list	pelvis_rotation	pelvis_tx	pelvis_ty	pelvis_tz	hip_flexion_r	hip_adduction_r	hip_rotation_r	knee_angle_r	knee_angle_r_beta	ankle_angle_r	subtalar_angle_r	mtp_angle_r	hip_flexion_l	hip_adduction_l	hip_rotation_l	knee_angle_l	knee_angle_l_beta	ankle_angle_l	subtalar_angle_l	mtp_angle_l	lumbar_extension	lumbar_bending	lumbar_rotation	arm_flex_r	arm_add_r	arm_rot_r	elbow_flex_r	pro_sup_r	arm_flex_l	arm_add_l	arm_rot_l	elbow_flex_l	pro_sup_l
      1.47000000	     -9.51578232	     -1.78942754	      5.44384910	     -0.30464875	      0.75950591	     -0.57779326	     65.61940316	     -5.69936622	     -7.02313795	     94.47841085	      1.64895934	     33.09399387	     -8.13262907	     -7.46852503	     64.64282409	      2.17757623	      4.98598253	     94.41198656	      1.64780002	     34.53570943	    -17.17275402	     -7.46852503	    -31.38171783	      2.55819619	     -1.45520571	     54.84155571	    -20.50027261	      9.39507127	     67.20580851	    100.54677183	     38.16256707	    -15.99716448	      1.27701955	     86.55612827	     93.08447900
      1.48000000	     -9.62680797	     -1.64510634	      5.73169198	     -0.30327394	      0.77104466	     -0.57820547	     64.39360950	     -5.57263244	     -6.80717276	     92.40136592	      1.61270807	     32.08766175	     -8.90573676	     -7.46989458	     63.44951972	      2.56012593	      5.07527386	     92.24302762	      1.60994454	     33.33156364	    -17.85186054	     -7.46989458	    -30.62063238	      2.47921949	     -1.37075565	     58.01366248	    -22.66977440	     10.38230771	     71.94026611	    100.45103959	     43.39505736	    -17.75502972	      4.03680697	     87.90090687	     92.73968411
      1.49000000	     -9.69451796	     -1.47812652	      6.08481271	     -0.30157958	      0.78344939	     -0.57873954	     62.93308007	     -5.59888765	     -6.67064486	     90.14018306	      1.57324298	     31.55100518	     -8.94870795	     -7.47024674	     62.04393141	      2.90497186	      5.14905993	     89.86111986	      1.56837241	     32.67003773	    -17.57606782	     -7.47024674	    -29.88520154	      2.54852976	     -2.15453450	     62.10406840	    -23.79361692	     11.69633915	     76.00052904	    100.67840925	     48.21605694	    -20.33108384	      5.88414744	     90.21950948	     92.90966146
      1.50000000	     -9.73562652	     -1.25508995	      6.36734295	     -0.29973460	      0.79671581	     -0.57920432	     61.32100661	     -5.56750816	     -6.49418461	     87.62225117	      1.52929678	     30.67496274	     -9.66985450	     -7.47122651	     60.42430156	      3.14129908	      5.07560197	     87.15444718	      1.52113206	     31.66599267	    -18.05251751	     -7.47122651	    -29.10851604	      2.36600802	     -2.26577090	     66.24736092	    -26.10970632	     13.27427651	     80.28918395	    100.63550789	     54.18590243	    -22.37349634	      8.95353876	     91.65860861	     92.61731864
      1.51000000	     -9.93877123	     -1.09490868	      6.68731592	     -0.29743097	      0.81070757	     -0.57968498	     59.69713889	     -5.60299153	     -6.47707378	     84.85823593	      1.48105561	     30.01212014	     -9.70315337	     -7.47157287	     58.83618477	      3.24108679	      4.97580581	     84.23288788	      1.47014123	     30.82696300	    -17.59729137	     -7.47157287	    -28.15989205	      2.36847985	     -3.03471627	     70.93299435	    -27.33630803	     14.56693509	     84.31771598	    100.81145356	     59.76400476	    -25.12194285	     11.11833941	     93.92907567	     92.75283469
      1.52000000	    -10.09719460	     -0.96515620	      6.90168076	     -0.29484073	      0.82566407	     -0.58001284	     57.94261603	     -5.53405683	     -6.54906512	     81.84017181	      1.42838046	     28.63125967	    -10.67852399	     -7.47332111	     57.07968770	      3.13530148	      4.69615160	     81.01295426	      1.41394279	     29.47177432	    -18.02079153	     -7.47332111	    -27.18198877	      2.17582372	     -3.01601872	     75.76472942	    -29.74265237	     16.08977026	     88.27518667	    100.18082025	     66.49595608	    -26.92200215	     14.51221980	     95.09600046	     91.67902640
      1.53000000	    -10.32828841	     -0.93050233	      7.13806808	     -0.29175859	      0.84150729	     -0.58063936	     56.16916010	     -5.56949491	     -6.84219620	     78.66028363	      1.37288094	     27.33994696	    -10.80486637	     -7.47381592	     55.33701635	      2.91619998	      4.37239943	     77.65219685	      1.35528651	     28.26781129	    -17.64357491	     -7.47381592	    -26.10039321	      2.24058993	     -3.60614189	     81.33840428	    -31.10440108	     17.92094106	     91.27447919	    100.22323884	     72.86281193	    -29.35741762	     17.11880579	     96.90685021	     91.63983733
      1.54000000	    -10.70866443	     -1.02227106	      7.37227229	     -0.28814745	      0.85835495	     -0.58143479	     54.47900159	     -5.58980000	     -7.31206735	     75.26123007	      1.31355626	     25.47739860	    -10.67059409	     -7.47419700	     53.66410280	      2.57582095	      4.02791430	     74.04471992	      1.29232416	     26.65436428	    -17.14822524	     -7.47419700	    -24.82438720	      2.42736183	     -4.17649922	     86.92394487	    -32.25253958	     19.47745914	     94.21487619	    100.24145682	     79.24724013	    -31.61692754	     19.59004399	     98.71602743	     91.59458783
      1.55000000	    -10.97370093	     -1.13537665	      7.49633356	     -0.28419854	      0.87657819	     -0.58198398	     52.60605610	     -5.41358681	     -7.78843921	     71.52658201	      1.24837436	     22.37342962	    -11.94066786	     -7.47508303	     51.71252307	      2.08626284	      3.54125975	     70.07231670	      1.22299264	     24.36192741	    -17.36395292	     -7.47508303	    -23.58018381	      2.47718607	     -4.42735034	     92.73334683	    -33.59417034	     21.34124015	     95.85148512	     99.77784474	     86.23036987	    -33.39837872	     23.12659359	     99.65781461	     91.01457235
      1.56000000	    -11.34102947	     -1.26975381	      7.64375861	     -0.27947181	      0.89612571	     -0.58265148	     50.66996554	     -5.25183788	     -8.29551350	     67.50305661	      1.17815059	     19.11110324	    -12.54465840	     -7.47636248	     49.61040261	      1.59058565	      3.02947937	     65.63251763	      1.14550353	     21.91970588	    -17.07673207	     -7.47636248	    -22.17020564	      2.56326849	     -4.81438594	     98.09032831	    -34.58902830	     22.84148474	     97.33520090	     98.94971963	     92.63121411	    -34.95541403	     26.06768523	    101.05717079	     90.17938815
      1.57000000	    -11.64033934	     -1.35538280	      7.82044300	     -0.27400339	      0.91723016	     -0.58349325	     48.45738294	     -5.17926839	     -8.85394150	     63.12114906	      1.10167188	     15.50876522	    -12.70733961	     -7.47747343	     47.12254848	      1.15646453	      2.44748740	     60.61918118	      1.05800430	     19.03829412	    -16.63840954	     -7.47747343	    -20.63771050	      2.59844114	     -5.31776294	    102.79353034	    -35.34151973	     24.27287991	     98.02422535	     98.34780524	     98.43842268	    -36.18070545	     28.82368912	    102.26795818	     89.49858041
      1.58000000	    -11.75855329	     -1.40002844	      8.00837738	     -0.26777612	      0.94007721	     -0.58458773	     45.75909863	     -5.18369250	     -9.56313055	     58.22037988	      1.01613732	     11.81172890	    -12.22890411	     -7.47768719	     44.14737317	      0.76017588	      1.77987721	     55.06005524	      0.96097925	     15.85736229	    -15.81843830	     -7.47768719	    -19.12250413	      2.59370907	     -5.80904212	    106.77897133	    -36.16332669	     25.67279080	     97.85958548	     98.43700978	    103.44604789	    -37.09949446	     31.39141730	    103.12519365	     89.56930088
      1.59000000	    -11.70964899	     -1.44073197	      8.15681664	     -0.26068184	      0.96479992	     -0.58571632	     42.53798002	     -5.07329070	    -10.42337056	     52.59747357	      0.91799909	      7.24578971	    -11.85349533	     -7.47756133	     40.69711788	      0.31098581	      0.96299194	     48.85680011	      0.85271202	     11.61048734	    -14.93592403	     -7.47756133	    -17.63887307	      2.51964932	     -6.17914565	    109.73526329	    -37.21216989	     26.76835037	     97.28458361	     98.80190541	    107.44997401	    -37.68636585	     33.72900733	    103.85033835	     89.90302213
      1.60000000	    -11.50016571	     -1.41133500	      8.28185497	     -0.25277593	      0.99129930	     -0.58685476	     38.78392072	     -4.86761146	    -11.31950419	     46.16703001	      0.80576668	      1.79297200	    -11.33373800	     -7.47709745	     36.77942543	     -0.07847972	      0.00320187	     41.97642765	      0.73262687	      6.14403462	    -13.78852590	     -7.47709745	    -16.24029493	      2.28600470	     -6.39509513	    111.62692554	    -38.73006250	     27.50562209	     96.44227406	     99.47640553	    110.27059227	    -37.97975830	     35.56588646	    104.41812771	     90.53464135
      1.61000000	    -11.16961206	     -1.30637537	      8.32773256	     -0.24416908	      1.01921278	     -0.58796323	     34.63017117	     -4.65485312	    -12.40221799	     39.10114684	      0.68244375	     -3.92048519	     -9.38969309	     -7.47554072	     32.42506918	     -0.43103404	     -1.19407389	     34.39109405	      0.60023782	     -0.05313387	    -11.46957923	     -7.47554072	    -14.90268139	      1.99488134	     -6.44461009	    112.69286452	    -40.41856513	     28.07079986	     95.41232339	    101.11080003	    111.73183048	    -38.37897046	     36.75101202	    104.96750691	     91.86626988
      1.62000000	    -10.71220776	     -1.21137786	      8.25976645	     -0.23520392	      1.04805460	     -0.58886612	     30.07051303	     -4.21745080	    -13.53699309	     31.17714789	      0.54414388	    -10.93461568	     -7.04937031	     -7.47252398	     27.73653647	     -0.74959473	     -2.51061407	     26.12640486	      0.45599179	     -7.95115654	     -8.94439857	     -7.47252398	    -13.61728614	      1.70878913	     -6.28429314	    112.95452645	    -42.15475142	     28.45863308	     93.84827889	    104.00621954	    112.15920677	    -38.94766492	     37.64173172	    105.03074130	     94.09555127
